<svg width="256" height="256" viewBox="0 0 256 256" fill="none" xmlns="http://www.w3.org/2000/svg">
<path d="M183.371 25C163.827 25 147.983 40.8494 147.983 60.3998V72.1461L5.02096 182.127C-0.609033 186.471 -1.6546 194.557 2.64832 200.189C6.95125 205.82 15.0745 206.866 20.7045 202.562L50.7044 179.472H104.23L122.969 224.969C124.98 229.916 130.65 232.25 135.556 230.238C140.463 228.227 142.835 222.555 140.825 217.647L125.101 179.472H141.548C141.991 179.472 142.393 179.472 142.835 179.472L161.575 225.009C163.586 229.957 169.256 232.29 174.162 230.279C179.068 228.267 181.441 222.595 179.43 217.687L162.54 176.656C194.993 167.444 218.76 137.636 218.76 102.236V76.4906V73.2724L251.132 65.1868C254.591 64.342 256.682 60.8423 255.797 57.3828C252.942 45.9181 242.647 37.8726 230.824 37.8726H210.677C204.162 30.0284 194.35 25 183.371 25ZM183.371 50.7453C184.639 50.7453 185.894 50.995 187.065 51.4802C188.236 51.9654 189.3 52.6765 190.196 53.573C191.092 54.4695 191.803 55.5338 192.288 56.7052C192.773 57.8765 193.023 59.1319 193.023 60.3998C193.023 61.6676 192.773 62.9231 192.288 64.0944C191.803 65.2657 191.092 66.33 190.196 67.2265C189.3 68.123 188.236 68.8342 187.065 69.3194C185.894 69.8046 184.639 70.0543 183.371 70.0543C182.104 70.0543 180.849 69.8046 179.678 69.3194C178.507 68.8342 177.443 68.123 176.547 67.2265C175.65 66.33 174.94 65.2657 174.454 64.0944C173.969 62.9231 173.72 61.6676 173.72 60.3998C173.72 59.1319 173.969 57.8765 174.454 56.7052C174.94 55.5338 175.65 54.4695 176.547 53.573C177.443 52.6765 178.507 51.9654 179.678 51.4802C180.849 50.995 182.104 50.7453 183.371 50.7453Z" fill="white"/>
</svg>
